<?xml version="1.0" encoding="utf-8"?>
<!-- Generator: Adobe Illustrator 17.0.0, SVG Export Plug-In . SVG Version: 6.00 Build 0)  -->
<!DOCTYPE svg PUBLIC "-//W3C//DTD SVG 1.1//EN" "http://www.w3.org/Graphics/SVG/1.1/DTD/svg11.dtd">
<svg version="1.1" id="Layer_1" xmlns="http://www.w3.org/2000/svg" xmlns:xlink="http://www.w3.org/1999/xlink" x="0px" y="0px"
	 width="43.54px" height="45.036px" viewBox="0 0 43.54 45.036" enable-background="new 0 0 43.54 45.036" xml:space="preserve">
<path opacity="0.1" fill="#D1D3D4" d="M43.54,2.64c-2.21,0-4.37,1.15-6.11,2.08c-1.84,0.98-3.42,1.83-4.77,1.02c0,0,0,0-0.01,0
	c0,0,0,0-0.01,0c-1.35,0.81-2.93-0.04-4.77-1.02c-1.73-0.93-3.89-2.08-6.1-2.08s-4.37,1.15-6.1,2.08c-1.84,0.98-3.43,1.83-4.77,1.02
	c-0.01,0-0.01,0-0.01,0c-0.01,0-0.01,0-0.01,0C9.53,6.55,7.94,5.7,6.11,4.72C4.37,3.79,2.21,2.64,0,2.64V0
	c2.87,0,5.46,1.38,7.35,2.39c0.71,0.38,1.64,0.88,2.12,1c0.04-0.14,0.08-0.4,0.09-0.82c0-0.01,0-0.01,0-0.02s0-0.01,0-0.02
	s0.01-0.02,0.01-0.02V2.5c0.02-0.11,0.12-0.19,0.24-0.19h2.18c0.1,0,0.19,0.06,0.22,0.14c0,0.07,0,0.14,0.01,0.2
	c0.01,0.37,0.05,0.61,0.08,0.74c0.48-0.12,1.42-0.62,2.12-1C16.31,1.38,18.9,0,21.77,0s5.46,1.38,7.35,2.39
	c0.71,0.38,1.64,0.88,2.12,1c0.03-0.14,0.08-0.38,0.09-0.78c0.01-0.03,0.01-0.07,0-0.1c0.01-0.01,0.01-0.02,0.01-0.03
	c-0.01-0.01,0-0.02,0-0.02c0.04-0.09,0.13-0.15,0.23-0.15h2.17c0.12,0,0.23,0.1,0.24,0.22c0,0.01,0,0.01,0,0.02s0,0.01,0,0.02
	c0.01,0.42,0.06,0.68,0.09,0.82c0.48-0.12,1.41-0.62,2.12-1C38.08,1.38,40.67,0,43.54,0V2.64z"/>
<path opacity="0.1" fill="#D1D3D4" d="M43.54,17.652c-2.21,0-4.37,1.15-6.11,2.08c-1.84,0.98-3.42,1.83-4.77,1.02c0,0,0,0-0.01,0
	c0,0,0,0-0.01,0c-1.35,0.81-2.93-0.04-4.77-1.02c-1.73-0.93-3.89-2.08-6.1-2.08s-4.37,1.15-6.1,2.08c-1.84,0.98-3.43,1.83-4.77,1.02
	c-0.01,0-0.01,0-0.01,0c-0.01,0-0.01,0-0.01,0c-1.35,0.81-2.94-0.04-4.77-1.02c-1.74-0.93-3.9-2.08-6.11-2.08v-2.64
	c2.87,0,5.46,1.38,7.35,2.39c0.71,0.38,1.64,0.88,2.12,1c0.04-0.14,0.08-0.4,0.09-0.82c0-0.01,0-0.01,0-0.02s0-0.01,0-0.02
	s0.01-0.02,0.01-0.02v-0.01c0.02-0.11,0.12-0.19,0.24-0.19h2.18c0.1,0,0.19,0.06,0.22,0.14c0,0.07,0,0.14,0.01,0.2
	c0.01,0.37,0.05,0.61,0.08,0.74c0.48-0.12,1.42-0.62,2.12-1c1.89-1.01,4.48-2.39,7.35-2.39s5.46,1.38,7.35,2.39
	c0.71,0.38,1.64,0.88,2.12,1c0.03-0.14,0.08-0.38,0.09-0.78c0.01-0.03,0.01-0.07,0-0.1c0.01-0.01,0.01-0.02,0.01-0.03
	c-0.01-0.01,0-0.02,0-0.02c0.04-0.09,0.13-0.15,0.23-0.15h2.17c0.12,0,0.23,0.1,0.24,0.22c0,0.01,0,0.01,0,0.02s0,0.01,0,0.02
	c0.01,0.42,0.06,0.68,0.09,0.82c0.48-0.12,1.41-0.62,2.12-1c1.89-1.01,4.48-2.39,7.35-2.39V17.652z"/>
<path opacity="0.1" fill="#D1D3D4" d="M43.54,32.664c-2.21,0-4.37,1.15-6.11,2.08c-1.84,0.98-3.42,1.83-4.77,1.02c0,0,0,0-0.01,0
	c0,0,0,0-0.01,0c-1.35,0.81-2.93-0.04-4.77-1.02c-1.73-0.93-3.89-2.08-6.1-2.08s-4.37,1.15-6.1,2.08c-1.84,0.98-3.43,1.83-4.77,1.02
	c-0.01,0-0.01,0-0.01,0c-0.01,0-0.01,0-0.01,0c-1.35,0.81-2.94-0.04-4.77-1.02c-1.74-0.93-3.9-2.08-6.11-2.08v-2.64
	c2.87,0,5.46,1.38,7.35,2.39c0.71,0.38,1.64,0.88,2.12,1c0.04-0.14,0.08-0.4,0.09-0.82c0-0.01,0-0.01,0-0.02s0-0.01,0-0.02
	s0.01-0.02,0.01-0.02v-0.01c0.02-0.11,0.12-0.19,0.24-0.19h2.18c0.1,0,0.19,0.06,0.22,0.14c0,0.07,0,0.14,0.01,0.2
	c0.01,0.37,0.05,0.61,0.08,0.74c0.48-0.12,1.42-0.62,2.12-1c1.89-1.01,4.48-2.39,7.35-2.39s5.46,1.38,7.35,2.39
	c0.71,0.38,1.64,0.88,2.12,1c0.03-0.14,0.08-0.38,0.09-0.78c0.01-0.03,0.01-0.07,0-0.1c0.01-0.01,0.01-0.02,0.01-0.03
	c-0.01-0.01,0-0.02,0-0.02c0.04-0.09,0.13-0.15,0.23-0.15h2.17c0.12,0,0.23,0.1,0.24,0.22c0,0.01,0,0.01,0,0.02s0,0.01,0,0.02
	c0.01,0.42,0.06,0.68,0.09,0.82c0.48-0.12,1.41-0.62,2.12-1c1.89-1.01,4.48-2.39,7.35-2.39V32.664z"/>
</svg>
