<?xml version="1.0" encoding="utf-8"?>
<!-- Generator: Adobe Illustrator 17.0.0, SVG Export Plug-In . SVG Version: 6.00 Build 0)  -->
<!DOCTYPE svg PUBLIC "-//W3C//DTD SVG 1.1//EN" "http://www.w3.org/Graphics/SVG/1.1/DTD/svg11.dtd">
<svg version="1.1" id="Layer_1" xmlns="http://www.w3.org/2000/svg" xmlns:xlink="http://www.w3.org/1999/xlink" x="0px" y="0px"
	 width="72px" height="72px" viewBox="0 0 72 72" enable-background="new 0 0 72 72" xml:space="preserve">
<g>
	<path fill="#FFFFFF" d="M67.453,47.824c-1.067,0-2.26-0.638-3.583-1.345c-1.735-0.929-3.896-2.083-6.104-2.083
		c-2.208,0-4.369,1.154-6.104,2.083c-1.838,0.982-3.422,1.828-4.769,1.023c-0.004-0.003-0.006-0.004-0.01-0.006
		c-0.004,0.003-0.006,0.004-0.01,0.006c-1.351,0.805-2.933-0.043-4.769-1.023c-1.735-0.929-3.896-2.083-6.104-2.083
		c-2.208,0-4.368,1.154-6.103,2.083c-1.838,0.982-3.428,1.828-4.769,1.023c-0.004-0.003-0.007-0.004-0.011-0.006
		c-0.004,0.003-0.007,0.004-0.011,0.006c-1.342,0.808-2.932-0.04-4.769-1.023c-1.735-0.929-3.895-2.083-6.103-2.083
		S9.865,45.55,8.13,46.479c-1.838,0.982-3.426,1.828-4.769,1.023c-1.192-0.715-1.33-2.303-1.33-3.436h2.638
		c0,0.578,0.052,0.91,0.096,1.089c0.481-0.126,1.413-0.624,2.121-1.002c1.89-1.011,4.479-2.395,7.348-2.395s5.458,1.384,7.348,2.395
		c0.708,0.379,1.64,0.876,2.121,1.002c0.044-0.179,0.096-0.51,0.096-1.089h2.638c0,0.578,0.052,0.91,0.096,1.089
		c0.481-0.126,1.413-0.624,2.121-1.002c1.89-1.011,4.479-2.395,7.348-2.395s5.458,1.384,7.348,2.395
		c0.707,0.379,1.64,0.876,2.119,1.002c0.045-0.179,0.097-0.51,0.097-1.089h2.638c0,0.578,0.052,0.91,0.097,1.089
		c0.479-0.126,1.412-0.624,2.119-1.002c1.89-1.011,4.479-2.395,7.348-2.395s5.458,1.384,7.348,2.395
		c0.707,0.379,1.64,0.876,2.119,1.002c0.045-0.179,0.097-0.51,0.097-1.089h2.638c0,1.132-0.138,2.721-1.33,3.436
		C68.262,47.727,67.867,47.824,67.453,47.824z"/>
	<path fill="#FFFFFF" d="M67.453,56.664c-1.067,0-2.26-0.638-3.583-1.345c-1.735-0.929-3.896-2.083-6.104-2.083
		c-2.208,0-4.369,1.154-6.104,2.083c-1.838,0.982-3.422,1.825-4.769,1.023c-0.004-0.003-0.006-0.004-0.01-0.006
		c-0.004,0.003-0.006,0.004-0.01,0.006c-1.351,0.805-2.933-0.041-4.769-1.023c-1.735-0.929-3.896-2.083-6.104-2.083
		c-2.208,0-4.368,1.154-6.103,2.083c-1.838,0.982-3.428,1.825-4.769,1.023c-0.004-0.003-0.007-0.004-0.011-0.006
		c-0.004,0.003-0.007,0.004-0.011,0.006c-1.342,0.805-2.932-0.04-4.769-1.023c-1.735-0.929-3.895-2.083-6.103-2.083
		S9.865,54.39,8.13,55.319c-1.838,0.982-3.426,1.825-4.769,1.023c-1.192-0.715-1.33-2.303-1.33-3.436h2.638
		c0,0.578,0.052,0.91,0.096,1.089c0.481-0.126,1.413-0.624,2.121-1.002c1.89-1.011,4.479-2.395,7.348-2.395s5.458,1.384,7.348,2.395
		c0.708,0.379,1.64,0.876,2.121,1.002c0.044-0.179,0.096-0.51,0.096-1.089h2.638c0,0.578,0.052,0.91,0.096,1.089
		c0.481-0.126,1.413-0.624,2.121-1.002c1.89-1.011,4.479-2.395,7.348-2.395s5.458,1.384,7.348,2.395
		c0.707,0.379,1.64,0.876,2.119,1.002c0.045-0.179,0.097-0.51,0.097-1.089h2.638c0,0.578,0.052,0.91,0.097,1.089
		c0.479-0.126,1.412-0.624,2.119-1.002c1.89-1.011,4.479-2.395,7.348-2.395s5.458,1.384,7.348,2.395
		c0.707,0.379,1.64,0.876,2.119,1.002c0.045-0.179,0.097-0.51,0.097-1.089h2.638c0,1.132-0.138,2.721-1.33,3.436
		C68.262,56.567,67.867,56.664,67.453,56.664z"/>
	<g>
		<path fill="#FFFFFF" d="M12.577,15.336c1.773,0,3.32,0.296,4.64,0.886c1.32,0.591,2.41,1.371,3.269,2.341
			c0.859,0.969,1.5,2.077,1.925,3.324c0.424,1.247,0.637,2.526,0.637,3.837c0,1.699-0.268,3.209-0.803,4.53
			c-0.536,1.32-1.274,2.428-2.216,3.324c-0.942,0.896-2.05,1.579-3.324,2.05c-1.275,0.472-2.651,0.707-4.128,0.707
			c-1.57,0-2.997-0.235-4.28-0.707C7.013,35.157,5.914,34.465,5,33.551c-0.915-0.914-1.621-2.032-2.119-3.352
			c-0.499-1.32-0.748-2.83-0.748-4.53c0-1.57,0.254-2.987,0.762-4.253c0.508-1.264,1.219-2.35,2.133-3.255
			c0.914-0.905,2.012-1.602,3.297-2.092C9.608,15.581,11.026,15.336,12.577,15.336z M12.521,20.211
			c-0.739,0-1.357,0.171-1.856,0.513c-0.499,0.342-0.896,0.776-1.192,1.302c-0.296,0.526-0.503,1.118-0.623,1.773
			c-0.12,0.656-0.18,1.298-0.18,1.925c0,0.647,0.055,1.307,0.166,1.981c0.111,0.674,0.314,1.288,0.609,1.842
			c0.296,0.554,0.697,1.011,1.205,1.371c0.508,0.36,1.15,0.54,1.925,0.54c0.702,0,1.302-0.143,1.801-0.43
			c0.499-0.286,0.904-0.688,1.219-1.205c0.314-0.517,0.545-1.122,0.692-1.815c0.148-0.692,0.222-1.454,0.222-2.285
			c0-0.683-0.073-1.357-0.222-2.022c-0.148-0.665-0.379-1.261-0.692-1.787c-0.314-0.526-0.725-0.946-1.233-1.26
			C13.855,20.341,13.242,20.193,12.521,20.211z"/>
		<path fill="#FFFFFF" d="M41.388,28.19h0.055l2.244-12.328h6.316l-4.959,19.946h-6.427l-2.3-11.58h-0.055l-2.272,11.58h-6.427
			l-4.959-19.946h6.316l2.244,12.328h0.055l2.382-12.328h5.402L41.388,28.19z"/>
		<path fill="#FFFFFF" d="M51.749,35.809V15.862h9.613c2.863,0,4.996,0.609,6.4,1.829c1.402,1.219,2.105,2.854,2.105,4.903
			c0,1.071-0.162,2.041-0.484,2.909c-0.325,0.868-0.827,1.606-1.51,2.216c-0.683,0.609-1.543,1.076-2.577,1.399
			c-1.036,0.323-2.273,0.484-3.713,0.484h-3.295v6.206H51.749z M61.001,24.949c0.776,0,1.409-0.171,1.899-0.513
			c0.49-0.341,0.734-0.946,0.734-1.815c0-0.461-0.116-0.831-0.348-1.108c-0.229-0.277-0.52-0.489-0.871-0.637
			c-0.353-0.148-0.732-0.245-1.136-0.291c-0.407-0.046-0.786-0.069-1.136-0.069h-1.855v4.432H61.001z"/>
	</g>
</g>
</svg>
